<?xml version="1.0" ?><svg id="Tablet" style="enable-background:new 0 0 32 32;" version="1.1" viewBox="0 0 32 32" xml:space="preserve" xmlns="http://www.w3.org/2000/svg" xmlns:xlink="http://www.w3.org/1999/xlink"><style type="text/css">
	.st0{fill:#F4D0B5;}
	.st1{fill:#A7856C;}
	.st2{fill:#E4EDF2;}
	.st3{fill:#8B9CA5;}
</style><g><path class="st0" d="M30,12.941c0-2.922-1.139-5.67-3.205-7.736S21.981,2,19.059,2c-2.922,0-5.67,1.138-7.736,3.205   c-1.088,1.088-1.895,2.351-2.428,3.698c1.253-0.501,2.617-0.785,4.047-0.785c2.657,0,5.095,0.954,6.992,2.535l3.69-3.69   c0.391-0.391,1.023-0.391,1.414,0s0.391,1.023,0,1.414l-3.69,3.69c1.581,1.898,2.535,4.335,2.535,6.992   c0,1.43-0.284,2.793-0.785,4.046c1.347-0.533,2.609-1.34,3.697-2.427C28.861,18.611,30,15.864,30,12.941z"/><path class="st1" d="M21.348,12.066l3.69-3.69c0.391-0.391,0.391-1.023,0-1.414s-1.023-0.391-1.414,0l-3.69,3.69   C20.447,11.08,20.92,11.553,21.348,12.066z"/><path class="st2" d="M23.883,19.059c0-2.657-0.954-5.095-2.535-6.992c-0.428-0.513-0.901-0.987-1.414-1.414   c-1.898-1.581-4.335-2.535-6.992-2.535c-1.43,0-2.794,0.284-4.047,0.785C4.861,10.516,2,14.456,2,19.059   C2,25.092,6.908,30,12.941,30c4.603,0,8.544-2.861,10.157-6.895C23.599,21.852,23.883,20.489,23.883,19.059z M20.397,18.059   c0.553,0,1,0.447,1,1s-0.447,1-1,1H5.485c-0.552,0-1-0.447-1-1s0.448-1,1-1H20.397z"/><path class="st3" d="M4.485,19.059c0,0.553,0.448,1,1,1h14.912c0.553,0,1-0.447,1-1s-0.447-1-1-1H5.485   C4.933,18.059,4.485,18.506,4.485,19.059z"/></g></svg>